<?xml version="1.0" standalone="no"?>
<!DOCTYPE svg PUBLIC "-//W3C//DTD SVG 20010904//EN"
 "http://www.w3.org/TR/2001/REC-SVG-20010904/DTD/svg10.dtd">
<svg version="1.0" xmlns="http://www.w3.org/2000/svg"
 width="266.000000pt" height="266.000000pt" viewBox="0 0 266.000000 266.000000"
 preserveAspectRatio="xMidYMid meet">
<metadata>
Created by potrace 1.11, written by Peter Selinger 2001-2013
</metadata>
<g transform="translate(0.000000,266.000000) scale(0.100000,-0.100000)"
fill="#000000" stroke="none">
<path d="M205 2566 c-37 -16 -70 -52 -84 -89 -8 -19 -11 -282 -11 -814 l0
-785 22 -40 c12 -21 38 -49 58 -61 l35 -22 1105 0 c608 -1 1116 3 1130 7 35
11 74 47 94 85 15 30 16 102 14 832 -3 790 -3 800 -24 827 -11 15 -33 37 -48
48 -27 21 -34 21 -1144 23 -916 2 -1122 0 -1147 -11z m2088 -218 c19 -15 40
-42 46 -60 6 -21 9 -252 8 -643 -2 -657 0 -628 -55 -670 -27 -20 -43 -20 -942
-20 -899 0 -915 0 -942 20 -53 40 -53 33 -54 680 0 330 4 615 8 632 10 39 61
80 103 85 17 2 426 3 911 3 l881 0 36 -27z"/>
<path d="M711 1859 c0 -401 5 -381 -83 -385 -29 -1 -56 -3 -59 -3 -3 -1 -6
-80 -6 -176 l0 -175 77 0 c191 0 338 102 403 278 19 53 21 80 23 435 l1 377
-178 0 -178 0 0 -351z"/>
<path d="M1126 1688 l0 -523 360 1 c197 0 368 3 380 6 125 37 222 131 258 253
19 63 15 180 -7 223 -17 30 -17 34 0 65 14 24 18 54 18 127 -1 88 -3 99 -35
158 -40 75 -113 145 -190 181 l-55 26 -365 3 -365 3 1 -523z m652 159 c10 -7
10 -12 1 -23 -9 -11 -44 -14 -155 -14 -144 0 -144 0 -144 23 0 23 0 23 143 23
78 -1 148 -5 155 -9z m2 -305 c11 -2 11 -5 2 -14 -9 -9 -57 -13 -157 -13 -127
-1 -145 1 -145 15 0 14 18 16 143 15 78 -1 149 -3 157 -3z"/>
<path d="M1207 655 c-115 -32 -227 -106 -290 -192 -65 -89 -95 -164 -112 -285
l-5 -38 539 0 538 0 -4 38 c-4 36 -6 47 -17 102 -12 53 -77 169 -123 216 -82
86 -157 131 -263 159 -63 17 -205 17 -263 0z"/>
</g>
</svg>
