<svg width="140" height="39" viewBox="0 0 140 39" xmlns="http://www.w3.org/2000/svg"><title>Prodigy Logo</title><path d="M84.745 30.741h-1.57v7.506h1.65V33.83c0-1.091.719-1.97 1.81-1.97.985 0 1.437.506 1.464 1.677v4.711h1.65v-5.163c0-1.677-1.038-2.555-2.662-2.555h-.106c-.24 0-.452.053-.665.106a2.606 2.606 0 0 0-1.544 1.224l-.027-.026V30.74zm-8.597 5.457c0-.879.64-1.145 1.358-1.251.718-.133 1.517-.107 2.023-.453v1.225c0 1.038-1.145 1.41-1.864 1.41-.559.027-1.517-.186-1.517-.931zm-1.65.08v.133c.08 1.384 1.251 2.05 2.555 2.05.879 0 1.943-.267 2.609-.906.133.692.612.905 1.277.905.266 0 .799-.106 1.038-.186v-1.145c-.16.027-.266.027-.372.027h-.054c-.292 0-.399-.16-.399-.559v-3.86c0-1.57-1.544-2.182-3.008-2.182-1.65 0-3.3.56-3.406 2.502h1.65c.08-.825.718-1.198 1.65-1.198.665 0 1.544.16 1.544 1.012 0 .985-1.065.851-2.263 1.064-1.33.16-2.82.453-2.82 2.343zm-9.715-5.537h-1.65v7.506h1.65v-7.506zm0-2.847h-1.65v1.57h1.65v-1.57zm-3.06 0h-6.069v10.38h1.624v-4.605h3.806v-1.49h-3.806v-2.715h4.444v-1.57zM48.76 14.532c0 5.19-1.623 10.008-4.737 13.974-3.993 5.11-10.008 8.197-16.742 8.65 6.175-3.407 10.514-8.97 12.03-15.597.4-1.703.586-3.46.586-5.19 0-2.156-.292-4.339-.905-6.441 2.768-1.065 5.75-1.597 8.81-1.597h.133c.56 2.05.825 4.125.825 6.201zm-9.874 1.837c0 1.677-.186 3.327-.559 4.977-1.464 6.335-5.643 11.684-11.578 14.932 2.981-4.232 4.631-9.183 4.631-14.134 0-1.756-.186-3.513-.585-5.216-.08-.4-.187-.799-.32-1.198a22.336 22.336 0 0 1 7.586-5.403c.532 1.97.825 4.019.825 6.042zM37.74 9.316a23.654 23.654 0 0 0-7.612 5.216v-.026l-.026.026c-.959-2.821-2.449-5.376-4.445-7.665a24.641 24.641 0 0 1 7.692-5.51 25.68 25.68 0 0 1 1.437 1.917 24.915 24.915 0 0 1 2.954 6.042zm-12.775-1.65c1.97 2.315 3.433 4.923 4.338 7.798l-.798.958a22.837 22.837 0 0 0-3.54 6.468c-.027-.053-.027-.107-.053-.16a22.621 22.621 0 0 0-1.943-4.046 26.075 26.075 0 0 0-1.544-2.262c-.24-.32-.506-.639-.799-.958a22.076 22.076 0 0 1 4.339-7.799zm-.692-.8a23.879 23.879 0 0 0-4.445 7.666l-.027-.026v.026c-2.156-2.235-4.71-3.992-7.639-5.243.932-2.875 2.423-5.536 4.392-7.958a28.914 28.914 0 0 1 4.046 2.315l.08.054a24.951 24.951 0 0 1 2.262 1.81l.053.08.053.026c.426.426.826.852 1.225 1.25zM11.87 10.3c2.927 1.278 5.483 3.088 7.585 5.403-.106.4-.24.799-.32 1.198a23.163 23.163 0 0 0 .107 10.886c.4 1.624.985 3.22 1.704 4.738a26.836 26.836 0 0 0 2.236 3.753c-5.936-3.248-10.115-8.597-11.578-14.959a17.561 17.561 0 0 1-.4-2.315 22.32 22.32 0 0 1-.16-2.662c0-1.996.293-4.045.826-6.042zm-.958-.372a23.235 23.235 0 0 0-.905 6.44c0 .932.053 1.864.16 2.795.106.799.239 1.624.425 2.423 1.517 6.627 5.856 12.216 12.03 15.597-3.087-.213-6.094-.985-8.783-2.29l-.106-.053c-3.088-1.517-5.723-3.62-7.825-6.308C1.544 22.943.106 15.597 1.969 8.357c1.624 0 3.248.133 4.818.426l.16.027c.639.133 1.277.266 1.89.452l.186.054c.639.16 1.277.372 1.89.612zm10.992 22.144a25.136 25.136 0 0 1-1.65-4.551 22.433 22.433 0 0 1-.107-10.38c.027-.16.08-.346.133-.506l.32.4c.532.691 1.038 1.41 1.49 2.155l1.863 3.86c.213.558.373 1.09.533 1.65l.505 1.783.506-1.783a22.381 22.381 0 0 1 3.86-7.666l.319-.399c.053.16.08.346.133.506.373 1.623.559 3.327.559 4.977 0 5.243-1.917 10.487-5.377 14.798-1.25-1.49-2.262-3.14-3.087-4.844zm22.916-2.928c3.247-4.152 4.95-9.209 4.95-14.612 0-2.289-.319-4.604-.93-6.84l-.107-.373h-.958c-3.168 0-6.255.56-9.103 1.65-.719-2.182-1.757-4.258-3.06-6.228a29.08 29.08 0 0 0-1.73-2.315l-.24-.293-.346.16c-3.221 1.41-6.016 3.38-8.331 5.855-.4-.426-.825-.825-1.251-1.224l-.053-.053a23.608 23.608 0 0 0-2.396-1.917l-.08-.053C19.776 1.89 18.232 1.038 16.608.32l-.346-.16-.24.293a25.294 25.294 0 0 0-4.79 8.464 24.744 24.744 0 0 0-1.837-.612l-.08-.053h-.132c-.64-.186-1.278-.32-1.917-.453l-.053-.053h-.186c-1.784-.346-3.62-.479-5.457-.452h-.399l-.106.372c-2.076 7.692-.613 15.518 4.019 21.48 2.209 2.847 5.003 5.083 8.304 6.653l.106.054c3.114 1.49 6.628 2.289 10.22 2.395h2.45c7.505-.186 14.266-3.487 18.657-9.103zm19.457-15.81c0 2.21-1.704 3.301-3.088 3.301h-2.688v-6.6h2.741c1.57 0 2.928.904 3.035 3.06v.24zm2.768.027c0-2.182-.959-5.829-5.989-5.829h-5.43V25.1h2.875v-5.962h2.608c4.977 0 5.936-3.62 5.936-5.776zm3.247 17.194c-.932.027-1.757.532-2.236 1.33l-.027-.026v-1.09h-1.57v7.505h1.65v-4.418c0-1.092.719-1.97 1.81-1.97.453 0 .799.106 1.038.346.266.266.4.719.426 1.33v4.712h1.65V33.11c0-1.677-1.038-2.555-2.661-2.555h-.08zm5.243-15.863c.4 0 .799.08 1.198.133V12.11c-.24-.026-.426-.08-1.065-.08-1.73 0-3.407 1.464-3.726 2.795h-.053v-2.449h-2.635V25.1h2.794v-6.042c.054-2.821 1.57-4.365 3.487-4.365zm12.19 4.019c0 2.21-1.118 4.498-3.62 4.498-2.501 0-3.62-2.289-3.62-4.498 0-2.182 1.119-4.471 3.62-4.471 2.502 0 3.62 2.289 3.62 4.471zm2.795 0c0-3.886-2.342-6.68-6.415-6.68-4.072 0-6.414 2.794-6.414 6.68 0 3.913 2.342 6.707 6.414 6.707 4.1.027 6.415-2.794 6.415-6.707zm4.232 11.844c-2.475 0-3.7 1.783-3.7 4.046 0 2.209 1.304 3.886 3.647 3.886 1.943 0 3.14-1.065 3.433-3.035h-1.65c-.16 1.065-.825 1.704-1.783 1.704-1.438 0-1.997-1.33-1.997-2.582 0-2.289 1.198-2.741 2.076-2.741.879 0 1.544.452 1.704 1.304 0 .026 0 .053.027.106h1.65c-.187-1.836-1.677-2.688-3.407-2.688zm7.506-11.844c0 2.21-1.065 4.498-3.567 4.498-2.422 0-3.513-2.156-3.513-4.365 0-2.289.931-4.631 3.566-4.631 2.156.027 3.514 1.703 3.514 4.498zm.053 6.388h2.661V7.532h-2.794v6.495h-.054c-.851-1.411-2.635-1.997-4.231-1.997-2.769 0-5.51 2.023-5.51 6.628 0 .399.027.798.053 1.198.373 3.22 2.316 5.615 5.882 5.615 1.597 0 3.194-.612 3.94-2.076h.053V25.1zm2.422 8.757h-3.86c.054-1.118.826-1.997 1.97-1.997 1.118 0 1.837.932 1.89 1.997zm1.65 1.064c.027-.186.027-.372.027-.532 0-2.05-1.411-3.833-3.567-3.833-2.236 0-3.62 1.837-3.62 3.966 0 2.316 1.331 3.94 3.673 3.94 1.65 0 3.035-.906 3.407-2.556h-1.57c-.293.825-.878 1.25-1.837 1.25-1.384 0-2.022-1.037-2.022-2.208h5.509v-.027zm1.33-24.753h2.796V7.506h-2.795v2.661zm0 14.932h2.796V12.376h-2.795V25.1zm14.853-6.654v.133c-.027 2.13-.985 4.285-3.407 4.285-2.263 0-3.274-1.97-3.354-3.992v-.213c0-2.13.852-4.418 3.354-4.418 2.422 0 3.407 2.022 3.407 4.205zm2.794 5.988V12.376h-2.794v1.73h-.054c-.718-1.437-2.156-2.102-3.753-2.102-3.62 0-5.749 2.954-5.749 6.361 0 3.646 1.677 6.68 5.696 6.68 1.57 0 3.034-.824 3.806-2.235h.054v1.943c0 2.103-1.012 3.247-3.274 3.247-1.437 0-2.715-.266-3.061-1.863h-2.795c.24 2.98 3.114 3.966 5.696 3.966 3.992.026 6.228-1.863 6.228-5.67zM140 12.376h-2.928l-3.22 9.502h-.054l-3.327-9.502h-3.087l4.818 12.67-.32.984c-.346 1.092-.665 1.784-1.97 1.784-.452 0-.878-.107-1.33-.16v2.369c.639.106 1.277.16 1.943.16 2.927 0 3.593-2.077 4.498-4.366L140 12.377z" fill="#1AAFE6"/></svg>