<?xml version="1.0" encoding="utf-8"?>
<!-- Generator: Adobe Illustrator 19.0.0, SVG Export Plug-In . SVG Version: 6.00 Build 0)  -->
<svg version="1.1" id="Layer_1" xmlns="http://www.w3.org/2000/svg" xmlns:xlink="http://www.w3.org/1999/xlink" x="0px" y="0px"
	 viewBox="0 0 320.8 317.6" style="enable-background:new 0 0 320.8 317.6;" xml:space="preserve">
<style type="text/css">
	.st0{fill:#C51F4B;}
	.st1{fill:#FFFFFF;}
</style>
<g id="XMLID_35_">
	<rect id="XMLID_832_" x="0" y="0" class="st0" width="320.8" height="317.6"/>
	<path id="XMLID_831_" class="st1" d="M47.3,143.9l5.6,1.4c-1.2,4.5-3.3,8-6.3,10.4c-3,2.4-6.8,3.6-11.2,3.6
		c-4.5,0-8.3-0.9-11.1-2.8c-2.9-1.8-5-4.5-6.5-8c-1.5-3.5-2.2-7.2-2.2-11.2c0-4.4,0.8-8.2,2.5-11.4c1.7-3.2,4.1-5.7,7.2-7.4
		c3.1-1.7,6.5-2.5,10.2-2.5c4.2,0,7.8,1.1,10.7,3.2c2.9,2.1,4.9,5.1,6,9l-5.5,1.3c-1-3-2.4-5.3-4.3-6.6c-1.9-1.4-4.2-2.1-7-2.1
		c-3.2,0-6,0.8-8.1,2.3c-2.2,1.5-3.7,3.6-4.6,6.2c-0.9,2.6-1.3,5.3-1.3,8c0,3.6,0.5,6.7,1.6,9.3c1,2.6,2.7,4.6,4.9,5.9
		c2.2,1.3,4.6,2,7.2,2c3.1,0,5.8-0.9,8-2.7C45,150.1,46.5,147.4,47.3,143.9"/>
	<path id="XMLID_2193_" class="st1" d="M78.3,143.4c-1.9,0.8-4.7,1.4-8.5,1.9c-2.1,0.3-3.6,0.6-4.5,1c-0.9,0.4-1.6,0.9-2,1.7
		c-0.5,0.7-0.7,1.5-0.7,2.4c0,1.4,0.5,2.5,1.6,3.4c1,0.9,2.6,1.4,4.6,1.4c2,0,3.8-0.4,5.3-1.3c1.6-0.9,2.7-2,3.4-3.5
		c0.6-1.2,0.8-2.9,0.8-5.1V143.4z M78.7,154.8c-1.9,1.6-3.8,2.8-5.5,3.4c-1.8,0.7-3.7,1-5.7,1c-3.4,0-5.9-0.8-7.8-2.4
		c-1.8-1.6-2.7-3.7-2.7-6.2c0-1.5,0.3-2.8,1-4.1c0.7-1.2,1.6-2.2,2.7-2.9c1.1-0.7,2.3-1.3,3.7-1.7c1-0.3,2.5-0.5,4.6-0.8
		c4.2-0.5,7.3-1.1,9.2-1.8c0-0.7,0-1.1,0-1.3c0-2.1-0.5-3.6-1.5-4.4c-1.3-1.2-3.3-1.7-5.9-1.7c-2.4,0-4.2,0.4-5.4,1.3
		c-1.2,0.8-2,2.3-2.6,4.5l-5.1-0.7c0.5-2.1,1.2-3.9,2.3-5.2c1.1-1.3,2.6-2.3,4.6-3c2-0.7,4.3-1.1,6.9-1.1c2.6,0,4.7,0.3,6.4,0.9
		c1.6,0.6,2.8,1.4,3.6,2.3c0.8,0.9,1.3,2.1,1.6,3.5c0.2,0.9,0.3,2.4,0.3,4.7v6.8c0,4.8,0.1,7.8,0.3,9.1c0.2,1.3,0.7,2.5,1.3,3.6
		h-5.4C79.2,157.5,78.9,156.3,78.7,154.8"/>
	<path id="XMLID_828_" class="st1" d="M91,158.6v-30.3h4.6v4.2c1-1.5,2.2-2.7,3.8-3.6c1.6-0.9,3.4-1.4,5.4-1.4
		c2.3,0,4.1,0.5,5.6,1.4c1.4,0.9,2.5,2.2,3.1,3.9c2.4-3.5,5.6-5.3,9.5-5.3c3,0,5.4,0.8,7,2.5c1.6,1.7,2.4,4.2,2.4,7.7v20.8h-5.2
		v-19.1c0-2.1-0.2-3.5-0.5-4.4c-0.3-0.9-0.9-1.6-1.8-2.2c-0.9-0.6-1.9-0.8-3.1-0.8c-2.1,0-3.9,0.7-5.4,2.1c-1.4,1.4-2.1,3.7-2.1,6.8
		v17.6h-5.2v-19.7c0-2.3-0.4-4-1.3-5.1c-0.8-1.1-2.2-1.7-4.1-1.7c-1.5,0-2.8,0.4-4,1.1c-1.2,0.8-2.1,1.9-2.7,3.3
		c-0.6,1.5-0.8,3.6-0.8,6.3v15.7H91z"/>
	<path id="XMLID_2189_" class="st1" d="M144.5,143.2c0,3.6,0.5,6.3,1.5,7.9c1.6,2.6,3.8,4,6.6,4c2.3,0,4.2-1,5.9-2.9
		c1.7-1.9,2.5-4.8,2.5-8.7c0-4-0.8-6.9-2.4-8.8c-1.6-1.9-3.5-2.8-5.7-2.8c-2.3,0-4.2,1-5.9,2.9C145.3,136.7,144.5,139.5,144.5,143.2
		 M144.5,158.6h-4.8v-41.8h5.2v14.9c2.2-2.7,5-4.1,8.4-4.1c1.9,0,3.7,0.4,5.3,1.1c1.7,0.8,3.1,1.8,4.1,3.2c1.1,1.4,1.9,3,2.5,4.9
		c0.6,1.9,0.9,4,0.9,6.2c0,5.2-1.3,9.2-3.9,12c-2.6,2.8-5.7,4.2-9.3,4.2c-3.6,0-6.4-1.5-8.5-4.5V158.6z"/>
	<path id="XMLID_825_" class="st1" d="M172.1,158.6v-30.3h4.7v4.6c1.2-2.1,2.3-3.6,3.3-4.2c1-0.7,2.1-1,3.3-1c1.7,0,3.5,0.6,5.3,1.7
		L187,134c-1.3-0.7-2.5-1.1-3.8-1.1c-1.1,0-2.2,0.3-3.1,1c-0.9,0.7-1.5,1.6-1.9,2.8c-0.6,1.8-0.9,3.8-0.9,6v15.9H172.1z"/>
	<path id="XMLID_2183_" class="st1" d="M192.3,158.6h5.2v-30.3h-5.2V158.6z M192.3,122.7h5.2v-5.9h-5.2V122.7z"/>
	<path id="XMLID_2180_" class="st1" d="M208.6,143.5c0,3.9,0.8,6.8,2.5,8.7c1.7,1.9,3.6,2.9,5.8,2.9c2.3,0,4.2-0.9,5.8-2.8
		c1.6-1.8,2.4-4.6,2.4-8.4c0-4.1-0.8-7.2-2.4-9.1c-1.6-1.9-3.6-2.9-6-2.9c-2.3,0-4.2,0.9-5.8,2.8
		C209.4,136.5,208.6,139.4,208.6,143.5 M225,158.6v-3.8c-1.9,3-4.8,4.5-8.6,4.5c-2.4,0-4.7-0.7-6.7-2c-2-1.3-3.6-3.2-4.8-5.6
		c-1.1-2.4-1.7-5.1-1.7-8.2c0-3,0.5-5.8,1.5-8.2c1-2.5,2.5-4.3,4.6-5.7c2-1.3,4.3-2,6.8-2c1.8,0,3.5,0.4,4.9,1.2
		c1.4,0.8,2.6,1.8,3.5,3v-15h5.2v41.8H225z"/>
	<path id="XMLID_2177_" class="st1" d="M240.9,142.9c0,4,0.8,6.9,2.4,8.7c1.6,1.8,3.6,2.7,6,2.7c2.4,0,4.4-0.9,6-2.7
		c1.6-1.8,2.4-4.7,2.4-8.5c0-3.7-0.8-6.5-2.5-8.4c-1.7-1.9-3.7-2.8-6-2.8c-2.3,0-4.3,0.9-5.9,2.8
		C241.7,136.5,240.9,139.2,240.9,142.9 M236.6,161.1l5,0.7c0.2,1.5,0.8,2.7,1.8,3.4c1.3,1,3,1.4,5.3,1.4c2.4,0,4.3-0.5,5.6-1.4
		c1.3-0.9,2.2-2.3,2.7-4c0.3-1,0.4-3.2,0.4-6.6c-2.3,2.6-5.1,4-8.5,4c-4.2,0-7.5-1.5-9.8-4.5c-2.3-3-3.5-6.6-3.5-10.8
		c0-2.9,0.5-5.6,1.6-8c1.1-2.4,2.6-4.3,4.6-5.7c2-1.3,4.4-2,7.1-2c3.6,0,6.6,1.4,8.9,4.3v-3.6h4.8v26.2c0,4.7-0.5,8.1-1.4,10
		c-1,2-2.5,3.5-4.6,4.7c-2.1,1.1-4.7,1.7-7.8,1.7c-3.6,0-6.6-0.8-8.8-2.4C237.6,166.8,236.5,164.3,236.6,161.1"/>
	<path id="XMLID_2174_" class="st1" d="M274,140.5h17.1c-0.2-2.5-0.9-4.5-2-5.7c-1.7-2-3.8-3-6.4-3c-2.4,0-4.4,0.8-6,2.4
		C275,135.8,274.1,137.9,274,140.5 M291,148.8l5.4,0.7c-0.8,3.1-2.4,5.5-4.7,7.2c-2.3,1.7-5.2,2.6-8.8,2.6c-4.5,0-8-1.4-10.6-4.1
		c-2.6-2.7-3.9-6.5-3.9-11.5c0-5.1,1.3-9.1,4-11.9c2.7-2.8,6.1-4.2,10.3-4.2c4.1,0,7.4,1.4,10,4.1c2.6,2.8,3.9,6.6,3.9,11.6
		c0,0.3,0,0.8,0,1.4h-22.8c0.2,3.3,1.1,5.9,2.9,7.6c1.7,1.8,3.8,2.7,6.4,2.7c1.9,0,3.5-0.5,4.9-1.5C289.1,152.6,290.2,151,291,148.8
		"/>
	<rect id="XMLID_814_" x="20.7" y="187" class="st1" width="4.9" height="37"/>
	<path id="XMLID_813_" class="st1" d="M33.4,223.9v-26.8h4.1v3.8c2-2.9,4.9-4.4,8.6-4.4c1.6,0,3.1,0.3,4.5,0.9
		c1.4,0.6,2.4,1.3,3.1,2.3c0.7,0.9,1.2,2.1,1.4,3.4c0.2,0.8,0.3,2.3,0.3,4.4v16.5h-4.6v-16.3c0-1.8-0.2-3.2-0.5-4.1
		c-0.4-0.9-1-1.7-1.9-2.2c-0.9-0.5-2-0.8-3.2-0.8c-2,0-3.6,0.6-5.1,1.8c-1.4,1.2-2.1,3.6-2.1,7v14.6H33.4z"/>
	<path id="XMLID_812_" class="st1" d="M71.6,219.9l0.7,4c-1.3,0.3-2.4,0.4-3.5,0.4c-1.7,0-3-0.3-3.9-0.8c-0.9-0.5-1.6-1.2-1.9-2.1
		c-0.4-0.9-0.6-2.6-0.6-5.4v-15.4h-3.4v-3.5h3.4v-6.6l4.6-2.7v9.4h4.6v3.5H67v15.7c0,1.3,0.1,2.1,0.2,2.5c0.2,0.4,0.4,0.7,0.8,0.9
		c0.4,0.2,0.9,0.3,1.6,0.3C70.1,220.1,70.8,220,71.6,219.9"/>
	<path id="XMLID_2166_" class="st1" d="M78.9,208H94c-0.2-2.2-0.8-3.9-1.7-5.1c-1.5-1.7-3.4-2.6-5.7-2.6c-2.1,0-3.9,0.7-5.3,2.1
		C79.8,203.8,79,205.6,78.9,208 M93.9,215.3l4.7,0.6c-0.7,2.7-2.1,4.9-4.2,6.4c-2,1.5-4.6,2.3-7.7,2.3c-4,0-7.1-1.2-9.4-3.6
		c-2.3-2.4-3.5-5.8-3.5-10.2c0-4.5,1.2-8,3.5-10.5c2.3-2.5,5.4-3.7,9.1-3.7c3.6,0,6.6,1.2,8.9,3.7c2.3,2.4,3.4,5.9,3.4,10.3
		c0,0.3,0,0.7,0,1.2H78.6c0.2,2.9,1,5.2,2.5,6.8c1.5,1.6,3.4,2.3,5.7,2.3c1.7,0,3.1-0.4,4.3-1.3C92.3,218.6,93.2,217.2,93.9,215.3"
		/>
	<path id="XMLID_809_" class="st1" d="M104.1,223.9v-26.8h4.1v4.1c1.1-1.9,2-3.2,2.9-3.8c0.9-0.6,1.9-0.9,2.9-0.9
		c1.5,0,3.1,0.5,4.7,1.5l-1.6,4.2c-1.1-0.7-2.2-1-3.4-1c-1,0-1.9,0.3-2.7,0.9c-0.8,0.6-1.4,1.4-1.7,2.5c-0.5,1.6-0.8,3.4-0.8,5.3v14
		H104.1z"/>
	<path id="XMLID_808_" class="st1" d="M121.9,223.9v-26.8h4.1v3.8c2-2.9,4.9-4.4,8.6-4.4c1.6,0,3.1,0.3,4.5,0.9
		c1.4,0.6,2.4,1.3,3.1,2.3c0.7,0.9,1.2,2.1,1.4,3.4c0.2,0.8,0.3,2.3,0.3,4.4v16.5h-4.6v-16.3c0-1.8-0.2-3.2-0.5-4.1
		c-0.4-0.9-1-1.7-1.9-2.2c-0.9-0.5-2-0.8-3.2-0.8c-2,0-3.6,0.6-5.1,1.8c-1.4,1.2-2.1,3.6-2.1,7v14.6H121.9z"/>
	<path id="XMLID_2161_" class="st1" d="M167.8,210.5c-1.7,0.7-4.2,1.2-7.5,1.7c-1.9,0.3-3.2,0.6-4,0.9c-0.8,0.3-1.4,0.8-1.8,1.5
		s-0.6,1.4-0.6,2.2c0,1.2,0.5,2.2,1.4,3c0.9,0.8,2.3,1.2,4.1,1.2c1.8,0,3.3-0.4,4.7-1.1c1.4-0.8,2.4-1.8,3-3.1
		c0.5-1,0.7-2.5,0.7-4.5V210.5z M168.2,220.6c-1.7,1.4-3.3,2.4-4.9,3c-1.6,0.6-3.3,0.9-5.1,0.9c-3,0-5.3-0.7-6.8-2.2
		c-1.6-1.4-2.4-3.3-2.4-5.5c0-1.3,0.3-2.5,0.9-3.6c0.6-1.1,1.4-2,2.4-2.6c1-0.7,2.1-1.1,3.3-1.5c0.9-0.2,2.3-0.5,4.1-0.7
		c3.7-0.4,6.4-1,8.2-1.6c0-0.6,0-1,0-1.2c0-1.8-0.4-3.2-1.3-3.9c-1.2-1-2.9-1.5-5.2-1.5c-2.2,0-3.7,0.4-4.8,1.1
		c-1,0.7-1.8,2.1-2.3,4l-4.5-0.6c0.4-1.9,1.1-3.4,2-4.6c0.9-1.2,2.3-2.1,4-2.7c1.8-0.6,3.8-0.9,6.1-0.9c2.3,0,4.2,0.3,5.6,0.8
		c1.4,0.5,2.5,1.2,3.2,2c0.7,0.8,1.2,1.8,1.4,3.1c0.2,0.8,0.2,2.2,0.2,4.2v6c0,4.2,0.1,6.9,0.3,8c0.2,1.1,0.6,2.2,1.2,3.2h-4.8
		C168.6,223,168.3,221.9,168.2,220.6"/>
	<path id="XMLID_805_" class="st1" d="M188.9,219.9l0.7,4c-1.3,0.3-2.4,0.4-3.5,0.4c-1.7,0-3-0.3-3.9-0.8c-0.9-0.5-1.6-1.2-1.9-2.1
		c-0.4-0.9-0.6-2.6-0.6-5.4v-15.4h-3.4v-3.5h3.4v-6.6l4.6-2.7v9.4h4.6v3.5h-4.6v15.7c0,1.3,0.1,2.1,0.2,2.5c0.2,0.4,0.4,0.7,0.8,0.9
		c0.4,0.2,0.9,0.3,1.6,0.3C187.4,220.1,188,220,188.9,219.9"/>
	<path id="XMLID_2155_" class="st1" d="M193.3,223.9h4.6v-26.8h-4.6V223.9z M193.3,192.2h4.6v-5.2h-4.6V192.2z"/>
	<path id="XMLID_2152_" class="st1" d="M207.7,210.5c0,3.4,0.8,6,2.3,7.7c1.5,1.7,3.4,2.6,5.7,2.6c2.3,0,4.2-0.9,5.7-2.6
		c1.5-1.7,2.3-4.3,2.3-7.8c0-3.3-0.8-5.8-2.3-7.5c-1.5-1.7-3.4-2.6-5.7-2.6c-2.3,0-4.2,0.9-5.7,2.6
		C208.5,204.5,207.7,207.1,207.7,210.5 M203,210.5c0-5,1.4-8.6,4.2-11c2.3-2,5.2-3,8.5-3c3.7,0,6.8,1.2,9.1,3.6
		c2.4,2.4,3.5,5.8,3.5,10c0,3.4-0.5,6.2-1.6,8.1c-1,2-2.6,3.5-4.6,4.6c-2,1.1-4.2,1.6-6.5,1.6c-3.8,0-6.8-1.2-9.2-3.6
		C204.2,218.5,203,215.1,203,210.5"/>
	<path id="XMLID_799_" class="st1" d="M233.5,223.9v-26.8h4.1v3.8c2-2.9,4.9-4.4,8.6-4.4c1.6,0,3.1,0.3,4.5,0.9
		c1.4,0.6,2.4,1.3,3.1,2.3c0.7,0.9,1.2,2.1,1.4,3.4c0.2,0.8,0.3,2.3,0.3,4.4v16.5h-4.6v-16.3c0-1.8-0.2-3.2-0.5-4.1
		c-0.4-0.9-1-1.7-1.9-2.2c-0.9-0.5-2-0.8-3.2-0.8c-2,0-3.6,0.6-5.1,1.8c-1.4,1.2-2.1,3.6-2.1,7v14.6H233.5z"/>
	<path id="XMLID_2148_" class="st1" d="M279.4,210.5c-1.7,0.7-4.2,1.2-7.5,1.7c-1.9,0.3-3.2,0.6-4,0.9c-0.8,0.3-1.4,0.8-1.8,1.5
		s-0.6,1.4-0.6,2.2c0,1.2,0.5,2.2,1.4,3c0.9,0.8,2.3,1.2,4.1,1.2c1.8,0,3.3-0.4,4.7-1.1c1.4-0.8,2.4-1.8,3-3.1
		c0.5-1,0.7-2.5,0.7-4.5V210.5z M279.8,220.6c-1.7,1.4-3.3,2.4-4.9,3c-1.6,0.6-3.3,0.9-5.1,0.9c-3,0-5.3-0.7-6.9-2.2
		c-1.6-1.4-2.4-3.3-2.4-5.5c0-1.3,0.3-2.5,0.9-3.6c0.6-1.1,1.4-2,2.4-2.6c1-0.7,2.1-1.1,3.3-1.5c0.9-0.2,2.3-0.5,4.1-0.7
		c3.7-0.4,6.4-1,8.2-1.6c0-0.6,0-1,0-1.2c0-1.8-0.4-3.2-1.3-3.9c-1.2-1-2.9-1.5-5.2-1.5c-2.2,0-3.7,0.4-4.8,1.1
		c-1,0.7-1.8,2.1-2.3,4l-4.5-0.6c0.4-1.9,1.1-3.4,2-4.6c0.9-1.2,2.3-2.1,4-2.7c1.8-0.6,3.8-0.9,6.1-0.9c2.3,0,4.2,0.3,5.6,0.8
		c1.4,0.5,2.5,1.2,3.2,2c0.7,0.8,1.2,1.8,1.4,3.1c0.2,0.8,0.2,2.2,0.2,4.2v6c0,4.2,0.1,6.9,0.3,8c0.2,1.1,0.6,2.2,1.2,3.2h-4.8
		C280.2,223,279.9,221.9,279.8,220.6"/>
	<rect id="XMLID_795_" x="290.6" y="187" class="st1" width="4.6" height="37"/>
	<path id="XMLID_2142_" class="st1" d="M36.8,271.2L32.2,259l-4.5,12.2H36.8z M49.1,284.1h-7.3l-2.9-7.4H25.7l-2.7,7.4h-7.1
		l12.9-32.7h7.1L49.1,284.1z"/>
	<path id="XMLID_792_" class="st1" d="M50.3,273.5l6.5-0.6c0.4,2.2,1.2,3.7,2.4,4.8c1.2,1,2.8,1.5,4.8,1.5c2.2,0,3.8-0.4,4.9-1.4
		c1.1-0.9,1.6-1.9,1.6-3.2c0-0.8-0.2-1.4-0.7-2c-0.5-0.5-1.3-1-2.4-1.4c-0.8-0.3-2.6-0.7-5.3-1.4c-3.6-0.9-6.1-2-7.5-3.2
		c-2-1.8-3-4-3-6.6c0-1.7,0.5-3.2,1.4-4.7c1-1.5,2.3-2.6,4.1-3.3c1.8-0.8,4-1.1,6.5-1.1c4.2,0,7.3,0.9,9.4,2.7
		c2.1,1.8,3.2,4.2,3.3,7.2l-6.7,0.3c-0.3-1.7-0.9-2.9-1.8-3.6c-0.9-0.7-2.3-1.1-4.2-1.1c-1.9,0-3.5,0.4-4.6,1.2
		c-0.7,0.5-1.1,1.2-1.1,2c0,0.8,0.3,1.4,1,2c0.8,0.7,2.9,1.4,6.1,2.2c3.2,0.8,5.7,1.5,7.2,2.4c1.6,0.8,2.8,1.9,3.7,3.3
		c0.9,1.4,1.3,3.1,1.3,5.2c0,1.9-0.5,3.6-1.6,5.3c-1.1,1.6-2.5,2.9-4.5,3.7c-1.9,0.8-4.3,1.2-7.2,1.2c-4.2,0-7.4-1-9.6-2.9
		C52.1,279.9,50.7,277.1,50.3,273.5"/>
	<path id="XMLID_2137_" class="st1" d="M107.6,262.3l1.7-1.3c1.3-1,1.9-1.9,1.9-2.9c0-0.8-0.3-1.5-0.9-2c-0.6-0.6-1.4-0.9-2.5-0.9
		c-1,0-1.8,0.3-2.4,0.7c-0.6,0.5-0.9,1.1-0.9,1.7c0,0.8,0.5,1.7,1.4,2.8L107.6,262.3z M105.1,269.1c-1.5,0.7-2.5,1.6-3.3,2.6
		c-0.7,1-1.1,2.1-1.1,3.1c0,1.4,0.4,2.5,1.3,3.3c0.9,0.9,2.1,1.3,3.6,1.3c1,0,1.9-0.2,2.9-0.6c0.9-0.4,1.9-1,3-1.9L105.1,269.1z
		 M124.9,280.1l-3.8,4.8c-1.9-0.9-3.7-2.2-5.4-3.8c-1.3,1.2-2.8,2.1-4.3,2.6c-1.5,0.6-3.3,0.8-5.4,0.8c-4.1,0-7.2-1.1-9.3-3.4
		c-1.6-1.8-2.4-3.8-2.4-6.1c0-2.1,0.6-4,1.9-5.7c1.3-1.7,3.1-3.1,5.7-4.4c-1.1-1.3-2-2.6-2.6-3.8c-0.6-1.2-0.9-2.3-0.9-3.4
		c0-2,0.8-3.7,2.4-5c1.6-1.4,3.9-2.1,6.8-2.1c2.9,0,5.1,0.7,6.7,2.2c1.6,1.4,2.4,3.2,2.4,5.3c0,1.3-0.4,2.6-1.2,3.8
		c-0.8,1.2-2.4,2.5-4.8,4l4.6,6c0.5-1,1-2.2,1.4-3.7l5.7,1.3c-0.6,2-1.1,3.5-1.5,4.4c-0.4,0.9-0.9,1.7-1.4,2.3
		c0.7,0.7,1.6,1.4,2.7,2.2C123.5,279.3,124.4,279.9,124.9,280.1"/>
	<path id="XMLID_2132_" class="st1" d="M159.4,271.2l-4.6-12.2l-4.5,12.2H159.4z M171.7,284.1h-7.3l-2.9-7.4h-13.2l-2.7,7.4h-7.1
		l12.9-32.7h7.1L171.7,284.1z"/>
	<polygon id="XMLID_785_" class="st1" points="188.2,284.1 188.2,251.6 194.9,251.6 194.9,278.6 211.5,278.6 211.5,284.1 	"/>
	<path id="XMLID_2128_" class="st1" d="M230.5,270.2c0-1.8-0.5-3.2-1.4-4.1c-0.9-1-2-1.4-3.3-1.4c-1.4,0-2.5,0.5-3.4,1.5
		c-0.9,1-1.3,2.3-1.3,4.1H230.5z M230.1,276.6l6.3,1c-0.8,2.3-2.1,4-3.8,5.2c-1.8,1.2-3.9,1.8-6.6,1.8c-4.2,0-7.3-1.3-9.3-4
		c-1.6-2.2-2.4-4.9-2.4-8.2c0-3.9,1-7,3.1-9.2c2.1-2.2,4.7-3.3,7.9-3.3c3.6,0,6.4,1.2,8.4,3.5c2.1,2.3,3,5.9,3,10.7h-15.9
		c0,1.9,0.6,3.3,1.5,4.3c1,1,2.2,1.6,3.7,1.6c1,0,1.8-0.3,2.5-0.8C229.2,278.6,229.7,277.8,230.1,276.6"/>
	<path id="XMLID_782_" class="st1" d="M247.6,284.1l-9.7-23.7h6.7l4.5,12.1l1.3,4c0.3-1,0.6-1.7,0.7-2c0.2-0.7,0.4-1.3,0.7-2
		l4.6-12.1h6.5l-9.5,23.7H247.6z"/>
	<path id="XMLID_2124_" class="st1" d="M280.1,270.2c0-1.8-0.5-3.2-1.4-4.1c-0.9-1-2-1.4-3.3-1.4c-1.4,0-2.5,0.5-3.4,1.5
		c-0.9,1-1.3,2.3-1.3,4.1H280.1z M279.7,276.6l6.3,1c-0.8,2.3-2.1,4-3.8,5.2s-3.9,1.8-6.6,1.8c-4.2,0-7.3-1.3-9.3-4
		c-1.6-2.2-2.4-4.9-2.4-8.2c0-3.9,1-7,3.1-9.2c2.1-2.2,4.7-3.3,7.9-3.3c3.6,0,6.4,1.2,8.4,3.5c2.1,2.3,3,5.9,3,10.7h-15.9
		c0,1.9,0.6,3.3,1.5,4.3c1,1,2.2,1.6,3.7,1.6c1,0,1.8-0.3,2.5-0.8C278.9,278.6,279.4,277.8,279.7,276.6"/>
	<rect id="XMLID_778_" x="291.5" y="251.4" class="st1" width="6.3" height="32.7"/>
</g>
</svg>
